<?xml version="1.0" encoding="UTF-8"?>
<svg id="Ebene_2" data-name="Ebene 2" xmlns="http://www.w3.org/2000/svg" viewBox="0 0 632.93 378.48">
  <defs>
    <style>
      .cls-1 {
        fill: #1d1d1b;
      }
    </style>
  </defs>
  <g id="Ebene_1-2" data-name="Ebene 1">
    <g>
      <g>
        <g>
          <path class="cls-1" d="M14.58,68.33c4.69,9.59,13.62,16.19,25.56,16.19,9.52,0,17.07-4.61,17.07-11.06s-7.4-10.11-19.26-13.84C18.82,53.61,3.22,47.75,3.22,28.56S21.61,0,38.45,0c18.02,0,30.47,10.55,36.77,21.61l-15.23,10.84c-4.32-7.25-11.5-14.58-22.05-14.58-7.69,0-14.5,4.1-14.5,10.62,0,7.98,7.25,9.16,19.7,13.55,18.68,6.59,34.2,11.65,34.2,31.27s-19.7,29.08-37.43,29.08C20.73,102.39,5.93,92.36,0,78.88l14.58-10.55Z"/>
          <path class="cls-1" d="M82.06,6.44h73.7V23.14h-27.95V100.93h-17.73V23.14h-28.02V6.44Z"/>
          <path class="cls-1" d="M163.63,6.44h63.68V22.72h-45.88v21.78h39.81v16.28h-39.81v23.94h46.87v16.21h-64.67V6.44Z"/>
          <path class="cls-1" d="M241.89,6.44h63.68V22.72h-45.88v21.78h39.81v16.28h-39.81v23.94h46.87v16.21h-64.67V6.44Z"/>
          <path class="cls-1" d="M386.13,100.93h-65.98V6.44h17.8V84.72h48.19v16.21Z"/>
        </g>
        <g>
          <path class="cls-1" d="M0,327.29c0-29.08,21.97-51.2,51.05-51.2,18.31,0,34.79,9.3,44.53,24.83l-15.6,11.13c-6.67-10.99-16.26-17.65-28.93-17.65-18.09,0-30.76,13.62-30.76,32.88s13.18,32.89,31.27,32.89c12.23,0,21.83-5.57,30.1-17.14l14.58,10.55c-9.59,16.11-26.66,24.9-44.68,24.9-28.93,0-51.56-22.12-51.56-51.2Z"/>
          <path class="cls-1" d="M106.96,376.95v-94.42h39.48c19.45,0,32.04,12.25,32.04,30.34,0,12.04-6.26,21.92-16.68,26.65l20.24,37.5h-19.51l-18.26-34.37h-19.45v34.3h-17.86Zm17.86-50.58h20.5c9.82,0,14.9-6.33,14.9-13.5,0-7.86-5.08-14.06-14.9-14.06h-20.5v27.55Z"/>
          <path class="cls-1" d="M192.36,282.53h63.68v16.28h-45.88v21.78h39.81v16.28h-39.81v23.94h46.87v16.21h-64.67v-94.49Z"/>
          <path class="cls-1" d="M261.85,377.02l36.12-94.49h20.43l36.19,94.49h-18.98l-6.59-18.51h-41.53l-6.66,18.51h-18.98Zm62.03-33.47l-15.62-41.4-15.75,41.4h31.38Z"/>
          <path class="cls-1" d="M342.13,282.53h73.7v16.7h-27.95v77.79h-17.73v-77.79h-28.02v-16.7Z"/>
          <path class="cls-1" d="M441.51,377.02h-17.8v-94.49h17.8v94.49Z"/>
          <path class="cls-1" d="M449.07,282.53h19.05l25.84,75.22,25.71-75.22h19.05l-33.55,94.49h-22.41l-33.68-94.49Z"/>
          <path class="cls-1" d="M546.21,282.53h63.68v16.28h-45.88v21.78h39.81v16.28h-39.81v23.94h46.87v16.21h-64.67v-94.49Z"/>
        </g>
        <g>
          <path class="cls-1" d="M50.54,138.04c17.94,0,33.33,8.64,42.92,22.78l-6.81,4.98c-9.08-12.74-21.97-19.63-36.11-19.63-24.1,0-41.67,18.38-41.67,43.14s17.94,43.07,42.11,43.07c14.5,0,27.39-6.67,36.55-19.63l6.52,4.98c-9.38,13.92-25.34,22.71-43.07,22.71C21.97,240.44,0,218.46,0,189.31s21.68-51.27,50.54-51.27Z"/>
          <path class="cls-1" d="M107.43,144.48h7.91v94.49h-7.91v-94.49Z"/>
          <path class="cls-1" d="M125.81,144.48h68.69v7.65h-30.39v86.84h-7.91v-86.84h-30.39v-7.65Z"/>
          <path class="cls-1" d="M200.18,144.48h9.56l28.94,48.29,28.94-48.29h9.56l-34.54,56.92v37.57h-7.91v-37.5l-34.54-56.99Z"/>
        </g>
      </g>
      <rect class="cls-1" x="616.71" y="360.8" width="16.22" height="16.22"/>
    </g>
  </g>
</svg>